REM MD5 8d1502279079654dd8ab1daabb8f6684
FILE "Eternal Melody (Japan).bin" BINARY
  TRACK 01 MODE2/2352
    INDEX 01 00:00:00
  TRACK 02 AUDIO
    INDEX 00 45:34:43
    INDEX 01 45:36:43
  TRACK 03 AUDIO
    INDEX 00 49:10:13
    INDEX 01 49:12:13
  TRACK 04 AUDIO
    INDEX 00 51:14:73
    INDEX 01 51:16:73
REM LEADOUT 54:37:30
